<mxfile host="app.diagrams.net" agent="Mozilla/5.0 (Windows NT 10.0; Win64; x64) AppleWebKit/537.36 (KHTML, like Gecko) Chrome/131.0.0.0 Safari/537.36" version="24.9.3">
  <diagram name="Ejercicio 3" id="0">
    <mxGraphModel dx="1120" dy="434" grid="1" gridSize="10" guides="1" tooltips="1" connect="1" arrows="1" fold="1" page="1" pageScale="1" pageWidth="850" pageHeight="1100" math="0" shadow="0">
      <root>
        <mxCell id="0" />
        <mxCell id="1" parent="0" />
        <mxCell id="2" value="" style="shape=rectangle;whiteSpace=wrap;html=1;fillColor=#D9EAD3;strokeColor=#6AA84F;" parent="1" vertex="1">
          <mxGeometry x="50" y="50" width="200" height="120" as="geometry" />
        </mxCell>
        <mxCell id="3" value="CLIENTES" style="text;html=1;stroke=none;fillColor=#E6E6E6;" parent="2" vertex="1">
          <mxGeometry width="200" height="30" as="geometry" />
        </mxCell>
        <mxCell id="4" value="PK DNI" style="text;html=1;fillColor=#FFFFFF;" parent="2" vertex="1">
          <mxGeometry y="30" width="200" height="30" as="geometry" />
        </mxCell>
        <mxCell id="5" value="Nombre" style="text;html=1;fillColor=#FFFFFF;" parent="2" vertex="1">
          <mxGeometry y="60" width="200" height="30" as="geometry" />
        </mxCell>
        <mxCell id="6" value="Dirección" style="text;html=1;fillColor=#FFFFFF;" parent="2" vertex="1">
          <mxGeometry y="90" width="200" height="30" as="geometry" />
        </mxCell>
        <mxCell id="7" value="" style="shape=rectangle;whiteSpace=wrap;html=1;fillColor=#D9EAD3;strokeColor=#6AA84F;" parent="1" vertex="1">
          <mxGeometry x="610" y="300" width="200" height="120" as="geometry" />
        </mxCell>
        <mxCell id="8" value="CUENTAS" style="text;html=1;stroke=none;fillColor=#E6E6E6;" parent="7" vertex="1">
          <mxGeometry width="200" height="30" as="geometry" />
        </mxCell>
        <mxCell id="9" value="PK Nº Cuenta" style="text;html=1;fillColor=#FFFFFF;" parent="7" vertex="1">
          <mxGeometry y="30" width="200" height="30" as="geometry" />
        </mxCell>
        <mxCell id="10" value="Saldo" style="text;html=1;fillColor=#FFFFFF;" parent="7" vertex="1">
          <mxGeometry y="60" width="200" height="30" as="geometry" />
        </mxCell>
        <mxCell id="11" value="FK Código Sucursal" style="text;html=1;fillColor=#FFFFFF;" parent="7" vertex="1">
          <mxGeometry y="90" width="200" height="30" as="geometry" />
        </mxCell>
        <mxCell id="12" value="" style="shape=rectangle;whiteSpace=wrap;html=1;fillColor=#D9EAD3;strokeColor=#6AA84F;" parent="1" vertex="1">
          <mxGeometry x="50" y="300" width="200" height="90" as="geometry" />
        </mxCell>
        <mxCell id="13" value="SUCURSALES" style="text;html=1;stroke=none;fillColor=#E6E6E6;" parent="12" vertex="1">
          <mxGeometry width="200" height="30" as="geometry" />
        </mxCell>
        <mxCell id="14" value="PK Código" style="text;html=1;fillColor=#FFFFFF;" parent="12" vertex="1">
          <mxGeometry y="30" width="200" height="30" as="geometry" />
        </mxCell>
        <mxCell id="15" value="Dirección" style="text;html=1;fillColor=#FFFFFF;" parent="12" vertex="1">
          <mxGeometry y="60" width="200" height="30" as="geometry" />
        </mxCell>
        <mxCell id="16" value="" style="shape=rectangle;whiteSpace=wrap;html=1;fillColor=#D9EAD3;strokeColor=#6AA84F;" parent="1" vertex="1">
          <mxGeometry x="880" y="140" width="200" height="120" as="geometry" />
        </mxCell>
        <mxCell id="17" value="TRANSACCIONES" style="text;html=1;stroke=none;fillColor=#E6E6E6;" parent="16" vertex="1">
          <mxGeometry width="200" height="30" as="geometry" />
        </mxCell>
        <mxCell id="18" value="PK Nº Transacción" style="text;html=1;fillColor=#FFFFFF;" parent="16" vertex="1">
          <mxGeometry y="30" width="200" height="30" as="geometry" />
        </mxCell>
        <mxCell id="19" value="Fecha" style="text;html=1;fillColor=#FFFFFF;" parent="16" vertex="1">
          <mxGeometry y="60" width="200" height="30" as="geometry" />
        </mxCell>
        <mxCell id="20" value="Cantidad" style="text;html=1;fillColor=#FFFFFF;" parent="16" vertex="1">
          <mxGeometry y="90" width="200" height="30" as="geometry" />
        </mxCell>
        <mxCell id="21" value="" style="shape=rectangle;whiteSpace=wrap;html=1;fillColor=#FFF2CC;strokeColor=#FFD966;" parent="1" vertex="1">
          <mxGeometry x="280" y="190" width="300" height="60" as="geometry" />
        </mxCell>
        <mxCell id="22" value="RELACIÓN CLIENTES-CUENTAS" style="text;html=1;stroke=none;fillColor=#E6E6E6;" parent="21" vertex="1">
          <mxGeometry width="300" height="30" as="geometry" />
        </mxCell>
        <mxCell id="23" value="PK FK DNI (Cliente)" style="text;html=1;" parent="21" vertex="1">
          <mxGeometry y="30" width="150" height="30" as="geometry" />
        </mxCell>
        <mxCell id="24" value="PK FK Nº Cuenta" style="text;html=1;" parent="21" vertex="1">
          <mxGeometry x="150" y="30" width="150" height="30" as="geometry" />
        </mxCell>
        <mxCell id="klVMQW78EtHoSe3RY6wL-24" style="edgeStyle=orthogonalEdgeStyle;rounded=0;orthogonalLoop=1;jettySize=auto;html=1;entryX=0;entryY=0.5;entryDx=0;entryDy=0;" parent="1" source="5" target="22" edge="1">
          <mxGeometry relative="1" as="geometry" />
        </mxCell>
        <mxCell id="klVMQW78EtHoSe3RY6wL-26" style="edgeStyle=orthogonalEdgeStyle;rounded=0;orthogonalLoop=1;jettySize=auto;html=1;entryX=0;entryY=0.25;entryDx=0;entryDy=0;" parent="1" source="22" target="10" edge="1">
          <mxGeometry relative="1" as="geometry" />
        </mxCell>
        <mxCell id="HMHtN8Aztn0RM8nkeni--24" style="edgeStyle=orthogonalEdgeStyle;rounded=0;orthogonalLoop=1;jettySize=auto;html=1;entryX=1;entryY=0.25;entryDx=0;entryDy=0;" parent="1" source="19" target="10" edge="1">
          <mxGeometry relative="1" as="geometry">
            <mxPoint x="850" y="370" as="targetPoint" />
          </mxGeometry>
        </mxCell>
        <mxCell id="HMHtN8Aztn0RM8nkeni--25" style="edgeStyle=orthogonalEdgeStyle;rounded=0;orthogonalLoop=1;jettySize=auto;html=1;entryX=1;entryY=0.5;entryDx=0;entryDy=0;" parent="1" source="11" target="14" edge="1">
          <mxGeometry relative="1" as="geometry" />
        </mxCell>
      </root>
    </mxGraphModel>
  </diagram>
</mxfile>
